<svg width="354" height="80" viewBox="0 0 354 80" fill="none" xmlns="http://www.w3.org/2000/svg">
<path d="M116 23.7008H110V20.8008H125.4V23.7008H119.4V39.0008H116V23.7008Z" fill="white"/>
<path d="M130.399 27.2C131.299 25.7 132.999 25 135.299 25V28.1C134.999 28 134.799 28 134.499 28C133.199 28 132.299 28.4 131.499 29.1C130.799 29.8 130.399 30.9 130.399 32.3V39H127.199V25.2H130.299V27.2H130.399Z" fill="white"/>
<path d="M143.3 25C145.3 25 146.9 25.5 148 26.5C149.1 27.5 149.6 28.9 149.6 30.9V39H146.5V37.3C146.1 37.9 145.5 38.4 144.8 38.7C144.1 39 143.2 39.2 142.2 39.2C141.2 39.2 140.3 39 139.5 38.7C138.7 38.3 138.1 37.8 137.7 37.2C137.3 36.6 137.1 35.8 137.1 35C137.1 33.8 137.6 32.8 138.5 32C139.4 31.2 140.9 30.9 142.9 30.9H146.5V30.7C146.5 29.7 146.2 29 145.6 28.5C145 28 144.2 27.7 143 27.7C142.2 27.7 141.5 27.8 140.7 28.1C140 28.3 139.3 28.7 138.8 29.1L137.5 26.7C138.2 26.1 139.1 25.7 140.1 25.4C141.1 25.2 142.2 25 143.3 25ZM142.9 36.9C143.7 36.9 144.4 36.7 145.1 36.4C145.7 36 146.2 35.5 146.5 34.8V33.2H143C141.1 33.2 140.2 33.8 140.2 35C140.2 35.6 140.4 36.1 140.9 36.4C141.4 36.7 142 36.9 142.9 36.9Z" fill="white"/>
<path d="M161.6 25C163.3 25 164.8 25.5 165.8 26.5C166.9 27.5 167.4 29 167.4 31V38.9H164.2V31.4C164.2 30.2 163.9 29.3 163.3 28.7C162.7 28.1 161.9 27.8 160.9 27.8C159.7 27.8 158.8 28.2 158.1 28.9C157.4 29.6 157.1 30.6 157.1 32V39H153.9V25.2H157V27C157.5 26.4 158.2 25.9 159 25.5C159.7 25.2 160.6 25 161.6 25Z" fill="white"/>
<path d="M175.8 39.2992C174.7 39.2992 173.6 39.1992 172.5 38.8992C171.4 38.5992 170.6 38.1992 169.9 37.7992L171.1 35.2992C171.7 35.6992 172.5 36.0992 173.3 36.2992C174.2 36.4992 175 36.6992 175.9 36.6992C177.8 36.6992 178.8 36.1992 178.8 35.1992C178.8 34.6992 178.6 34.3992 178 34.1992C177.5 33.9992 176.7 33.7992 175.6 33.6992C174.5 33.4992 173.5 33.2992 172.8 33.0992C172.1 32.8992 171.5 32.4992 170.9 31.8992C170.4 31.2992 170.1 30.4992 170.1 29.4992C170.1 28.1992 170.6 27.0992 171.7 26.3992C172.8 25.5992 174.3 25.1992 176.2 25.1992C177.2 25.1992 178.1 25.2992 179.1 25.4992C180.1 25.6992 180.8 25.9992 181.4 26.3992L180.2 28.8992C179 28.1992 177.7 27.8992 176.2 27.8992C175.2 27.8992 174.5 27.9992 174 28.2992C173.5 28.5992 173.3 28.8992 173.3 29.3992C173.3 29.8992 173.6 30.2992 174.1 30.4992C174.6 30.6992 175.5 30.8992 176.6 31.0992C177.7 31.2992 178.6 31.4992 179.3 31.6992C180 31.8992 180.6 32.2992 181.1 32.7992C181.6 33.2992 181.9 34.0992 181.9 35.0992C181.9 36.3992 181.3 37.3992 180.2 38.1992C179.3 38.8992 177.8 39.2992 175.8 39.2992Z" fill="white"/>
<path d="M192.6 25C193.9 25 195.2 25.3 196.2 25.9C197.3 26.5 198.1 27.3 198.7 28.4C199.3 29.5 199.6 30.7 199.6 32.1C199.6 33.5 199.3 34.7 198.7 35.8C198.1 36.9 197.3 37.7 196.2 38.3C195.1 38.9 193.9 39.2 192.6 39.2C190.7 39.2 189.3 38.6 188.2 37.3V44H185V25.2H188.1V27C188.6 26.3 189.3 25.8 190.1 25.5C190.8 25.2 191.7 25 192.6 25ZM192.2 36.5C193.4 36.5 194.4 36.1 195.1 35.3C195.9 34.5 196.3 33.5 196.3 32.2C196.3 30.9 195.9 29.9 195.1 29.1C194.3 28.3 193.4 27.9 192.2 27.9C191.4 27.9 190.7 28.1 190.1 28.4C189.5 28.7 189 29.2 188.6 29.9C188.2 30.6 188.1 31.3 188.1 32.2C188.1 33.1 188.3 33.8 188.6 34.5C189 35.2 189.5 35.7 190.1 36C190.8 36.3 191.5 36.5 192.2 36.5Z" fill="white"/>
<path d="M207.8 25C209.8 25 211.4 25.5 212.5 26.5C213.6 27.5 214.1 28.9 214.1 30.9V39H211V37.3C210.6 37.9 210 38.4 209.3 38.7C208.6 39 207.7 39.2 206.7 39.2C205.7 39.2 204.8 39 204 38.7C203.2 38.3 202.6 37.8 202.2 37.2C201.8 36.6 201.6 35.8 201.6 35C201.6 33.8 202.1 32.8 203 32C203.9 31.2 205.4 30.9 207.4 30.9H211V30.7C211 29.7 210.7 29 210.1 28.5C209.5 28 208.7 27.7 207.5 27.7C206.7 27.7 206 27.8 205.2 28.1C204.5 28.3 203.8 28.7 203.3 29.1L202 26.7C202.7 26.1 203.6 25.7 204.6 25.4C205.6 25.1 206.7 25 207.8 25ZM207.4 36.9C208.2 36.9 208.9 36.7 209.6 36.4C210.2 36 210.7 35.5 210.9 34.8V33.2H207.6C205.7 33.2 204.8 33.8 204.8 35C204.8 35.6 205 36.1 205.5 36.4C205.9 36.7 206.6 36.9 207.4 36.9Z" fill="white"/>
<path d="M221.399 27.2C222.299 25.7 223.999 25 226.299 25V28.1C225.999 28 225.799 28 225.499 28C224.199 28 223.299 28.4 222.499 29.1C221.799 29.8 221.399 30.9 221.399 32.3V39H218.199V25.2H221.299V27.2H221.399Z" fill="white"/>
<path d="M242.001 32.1992C242.001 32.3992 242.001 32.6992 241.901 33.1992H231.001C231.201 34.1992 231.701 34.9992 232.501 35.5992C233.301 36.1992 234.301 36.4992 235.501 36.4992C237.001 36.4992 238.301 35.9992 239.301 34.9992L241.001 36.9992C240.401 37.6992 239.601 38.2992 238.601 38.6992C237.601 39.0992 236.601 39.2992 235.401 39.2992C233.901 39.2992 232.501 38.9992 231.401 38.3992C230.201 37.7992 229.301 36.9992 228.701 35.8992C228.101 34.7992 227.801 33.5992 227.801 32.1992C227.801 30.7992 228.101 29.5992 228.701 28.5992C229.301 27.4992 230.201 26.6992 231.301 26.0992C232.401 25.4992 233.601 25.1992 235.001 25.1992C236.301 25.1992 237.601 25.4992 238.601 26.0992C239.701 26.6992 240.501 27.4992 241.101 28.5992C241.701 29.4992 242.001 30.7992 242.001 32.1992ZM235.001 27.5992C234.001 27.5992 233.101 27.8992 232.401 28.4992C231.701 29.0992 231.301 29.8992 231.101 30.8992H239.001C238.901 29.8992 238.401 29.0992 237.701 28.4992C236.901 27.9992 236.001 27.5992 235.001 27.5992Z" fill="white"/>
<path d="M253.001 25C254.701 25 256.201 25.5 257.201 26.5C258.201 27.5 258.801 29 258.801 31V38.9H255.601V31.4C255.601 30.2 255.301 29.3 254.701 28.7C254.101 28.1 253.301 27.8 252.301 27.8C251.101 27.8 250.201 28.2 249.501 28.9C248.801 29.6 248.501 30.6 248.501 32V39H245.301V25.2H248.401V27C248.901 26.4 249.601 25.9 250.401 25.5C251.001 25.2 252.001 25 253.001 25Z" fill="white"/>
<path d="M266.9 23.7008H260.9V20.8008H276.3V23.7008H270.3V39.0008H266.9V23.7008Z" fill="white"/>
<path d="M290.1 32.1992C290.1 32.3992 290.1 32.6992 290 33.1992H279.1C279.3 34.1992 279.8 34.9992 280.6 35.5992C281.4 36.1992 282.4 36.4992 283.6 36.4992C285.1 36.4992 286.4 35.9992 287.4 34.9992L289.1 36.9992C288.5 37.6992 287.7 38.2992 286.7 38.6992C285.7 39.0992 284.7 39.2992 283.5 39.2992C282 39.2992 280.6 38.9992 279.5 38.3992C278.3 37.7992 277.4 36.9992 276.8 35.8992C276.2 34.7992 275.9 33.5992 275.9 32.1992C275.9 30.7992 276.2 29.5992 276.8 28.5992C277.4 27.4992 278.3 26.6992 279.4 26.0992C280.5 25.4992 281.7 25.1992 283.1 25.1992C284.4 25.1992 285.7 25.4992 286.7 26.0992C287.8 26.6992 288.6 27.4992 289.2 28.5992C289.8 29.4992 290.1 30.7992 290.1 32.1992ZM283.1 27.5992C282.1 27.5992 281.2 27.8992 280.5 28.4992C279.8 29.0992 279.4 29.8992 279.2 30.8992H287.1C287 29.8992 286.5 29.0992 285.8 28.4992C285 27.9992 284.2 27.5992 283.1 27.5992Z" fill="white"/>
<path d="M296.3 27.2C297.2 25.7 298.9 25 301.2 25V28.1C300.9 28 300.7 28 300.4 28C299.1 28 298.2 28.4 297.4 29.1C296.7 29.8 296.3 30.9 296.3 32.3V39H293.1V25.2H296.2V27.2H296.3Z" fill="white"/>
<path d="M307.1 27.2C308 25.7 309.7 25 312 25V28.1C311.7 28 311.5 28 311.2 28C309.9 28 309 28.4 308.2 29.1C307.5 29.8 307.1 30.9 307.1 32.3V39H304V25.2H307.1V27.2Z" fill="white"/>
<path d="M320.001 25C322.001 25 323.601 25.5 324.701 26.5C325.801 27.5 326.301 28.9 326.301 30.9V39H323.201V37.3C322.801 37.9 322.201 38.4 321.501 38.7C320.801 39 319.901 39.2 318.901 39.2C317.901 39.2 317.001 39 316.201 38.7C315.401 38.3 314.801 37.8 314.401 37.2C314.001 36.6 313.801 35.8 313.801 35C313.801 33.8 314.301 32.8 315.201 32C316.101 31.2 317.601 30.9 319.601 30.9H323.201V30.7C323.201 29.7 322.901 29 322.301 28.5C321.701 28 320.901 27.7 319.701 27.7C318.901 27.7 318.201 27.8 317.401 28.1C316.701 28.3 316.001 28.7 315.501 29.1L314.201 26.7C314.901 26.1 315.801 25.7 316.801 25.4C317.801 25.1 318.901 25 320.001 25ZM319.601 36.9C320.401 36.9 321.101 36.7 321.801 36.4C322.401 36 322.901 35.5 323.201 34.8V33.2H319.801C317.901 33.2 317.001 33.8 317.001 35C317.001 35.6 317.201 36.1 317.701 36.4C318.101 36.7 318.701 36.9 319.601 36.9Z" fill="white"/>
<path d="M338.899 17.8H335.699V17H342.999V17.8H339.799V26.1H338.799V17.8H338.899Z" fill="white"/>
<path d="M354 17V26.1H353.1V18.8L349.5 24.9H349L345.4 18.8V26H344.5V17H345.3L349.2 23.7L353.1 17H354Z" fill="white"/>
<path d="M150 52.7008H146V50.8008H156.3V52.7008H152.3V62.9008H150V52.7008Z" fill="white"/>
<path d="M161 63C160.1 63 159.2 62.8 158.5 62.4C157.7 62 157.2 61.4 156.7 60.7C156.3 60 156.1 59.2 156.1 58.2C156.1 57.2 156.3 56.5 156.7 55.8C157.1 55.1 157.7 54.5 158.5 54.1C159.3 53.7 160.1 53.5 161 53.5C161.9 53.5 162.8 53.7 163.5 54.1C164.3 54.5 164.8 55.1 165.2 55.8C165.6 56.5 165.8 57.3 165.8 58.2C165.8 59.1 165.6 59.9 165.2 60.7C164.8 61.4 164.2 62 163.5 62.4C162.8 62.8 161.9 63 161 63ZM161 61.1C161.8 61.1 162.5 60.8 163 60.3C163.5 59.8 163.8 59.1 163.8 58.2C163.8 57.3 163.5 56.6 163 56.1C162.5 55.6 161.8 55.3 161 55.3C160.2 55.3 159.5 55.6 159 56.1C158.5 56.6 158.2 57.3 158.2 58.2C158.2 59.1 158.5 59.8 159 60.3C159.5 60.9 160.2 61.1 161 61.1Z" fill="white"/>
<path d="M180.9 62.9008L178.4 59.4008C178.3 59.4008 178.1 59.4008 177.9 59.4008H175.2V62.9008H173V50.8008H178C179.1 50.8008 180 51.0008 180.7 51.3008C181.5 51.6008 182.1 52.1008 182.5 52.8008C182.9 53.4008 183.1 54.2008 183.1 55.1008C183.1 56.0008 182.9 56.8008 182.4 57.5008C182 58.2008 181.3 58.6008 180.5 59.0008L183.3 63.0008H180.9V62.9008ZM180.8 55.1008C180.8 54.3008 180.5 53.7008 180 53.3008C179.5 52.9008 178.7 52.7008 177.8 52.7008H175.2V57.5008H177.8C178.8 57.5008 179.5 57.3008 180 56.9008C180.6 56.4008 180.8 55.8008 180.8 55.1008Z" fill="white"/>
<path d="M194.099 58.3004C194.099 58.5004 194.099 58.7004 194.099 58.9004H186.799C186.899 59.6004 187.299 60.1004 187.799 60.5004C188.299 60.9004 188.999 61.1004 189.799 61.1004C190.799 61.1004 191.699 60.8004 192.299 60.1004L193.499 61.4004C193.099 61.9004 192.599 62.3004 191.899 62.5004C191.299 62.8004 190.499 62.9004 189.799 62.9004C188.799 62.9004 187.899 62.7004 187.099 62.3004C186.299 61.9004 185.699 61.3004 185.299 60.6004C184.899 59.9004 184.699 59.1004 184.699 58.1004C184.699 57.2004 184.899 56.4004 185.299 55.7004C185.699 55.0004 186.299 54.4004 186.999 54.0004C187.699 53.6004 188.499 53.4004 189.499 53.4004C190.399 53.4004 191.199 53.6004 191.899 54.0004C192.599 54.4004 193.199 55.0004 193.599 55.7004C193.899 56.5004 194.099 57.4004 194.099 58.3004ZM189.399 55.3004C188.699 55.3004 188.099 55.5004 187.599 55.9004C187.099 56.3004 186.799 56.8004 186.699 57.5004H191.899C191.799 56.8004 191.499 56.3004 191.099 55.9004C190.699 55.5004 190.099 55.3004 189.399 55.3004Z" fill="white"/>
<path d="M199 63C198.2 63 197.5 62.9 196.8 62.7C196.1 62.5 195.5 62.3 195.1 62L195.9 60.4C196.3 60.7 196.8 60.9 197.4 61.1C198 61.3 198.6 61.3 199.1 61.3C200.4 61.3 201 61 201 60.3C201 60 200.8 59.8 200.5 59.6C200.2 59.5 199.7 59.4 198.9 59.2C198.1 59.1 197.5 59 197 58.8C196.5 58.6 196.1 58.4 195.8 58C195.5 57.6 195.3 57.1 195.3 56.4C195.3 55.5 195.7 54.8 196.4 54.3C197.1 53.8 198.1 53.5 199.4 53.5C200 53.5 200.7 53.6 201.3 53.7C201.9 53.8 202.5 54 202.9 54.3L202.1 55.9C201.3 55.4 200.4 55.2 199.5 55.2C198.9 55.2 198.4 55.3 198 55.5C197.7 55.7 197.5 55.9 197.5 56.2C197.5 56.5 197.7 56.8 198 56.9C198.4 57 198.9 57.2 199.6 57.3C200.3 57.4 200.9 57.5 201.4 57.7C201.9 57.9 202.3 58.1 202.6 58.5C202.9 58.9 203.1 59.4 203.1 60C203.1 60.9 202.7 61.6 202 62.1C201.4 62.7 200.3 63 199 63Z" fill="white"/>
<path d="M210.6 62.4008C210.3 62.6008 210 62.8008 209.7 62.9008C209.3 63.0008 209 63.1008 208.6 63.1008C207.6 63.1008 206.8 62.8008 206.2 62.3008C205.6 61.8008 205.4 61.0008 205.4 60.0008V55.6008H203.9V53.9008H205.4V51.8008H207.6V53.9008H210.1V55.6008H207.6V60.0008C207.6 60.5008 207.7 60.8008 207.9 61.0008C208.1 61.2008 208.4 61.3008 208.9 61.3008C209.4 61.3008 209.8 61.2008 210.1 60.9008L210.6 62.4008Z" fill="white"/>
<path d="M216.3 63C215.4 63 214.5 62.8 213.8 62.4C213 62 212.5 61.4 212 60.7C211.6 60 211.4 59.2 211.4 58.2C211.4 57.2 211.6 56.5 212 55.8C212.4 55.1 213 54.5 213.8 54.1C214.6 53.7 215.4 53.5 216.3 53.5C217.2 53.5 218.1 53.7 218.8 54.1C219.6 54.5 220.1 55.1 220.5 55.8C220.9 56.5 221.1 57.3 221.1 58.2C221.1 59.1 220.9 59.9 220.5 60.7C220.1 61.4 219.5 62 218.8 62.4C218.1 62.8 217.2 63 216.3 63ZM216.3 61.1C217.1 61.1 217.8 60.8 218.3 60.3C218.8 59.8 219.1 59.1 219.1 58.2C219.1 57.3 218.8 56.6 218.3 56.1C217.8 55.6 217.1 55.3 216.3 55.3C215.5 55.3 214.8 55.6 214.3 56.1C213.8 56.6 213.5 57.3 213.5 58.2C213.5 59.1 213.8 59.8 214.3 60.3C214.8 60.9 215.5 61.1 216.3 61.1Z" fill="white"/>
<path d="M225.299 55C225.899 54 226.999 53.5 228.599 53.5V55.6C228.399 55.6 228.199 55.5 228.099 55.5C227.299 55.5 226.599 55.7 226.099 56.2C225.599 56.7 225.399 57.4 225.399 58.3V62.8H223.199V53.6H225.299V55Z" fill="white"/>
<path d="M239.099 58.3004C239.099 58.5004 239.099 58.7004 239.099 58.9004H231.799C231.899 59.6004 232.299 60.1004 232.799 60.5004C233.299 60.9004 233.999 61.1004 234.799 61.1004C235.799 61.1004 236.699 60.8004 237.299 60.1004L238.499 61.4004C238.099 61.9004 237.599 62.3004 236.899 62.5004C236.299 62.8004 235.599 62.9004 234.799 62.9004C233.799 62.9004 232.899 62.7004 232.099 62.3004C231.299 61.9004 230.699 61.3004 230.299 60.6004C229.899 59.9004 229.699 59.1004 229.699 58.1004C229.699 57.2004 229.899 56.4004 230.299 55.7004C230.699 55.0004 231.299 54.4004 231.999 54.0004C232.699 53.6004 233.499 53.4004 234.499 53.4004C235.399 53.4004 236.199 53.6004 236.899 54.0004C237.599 54.4004 238.199 55.0004 238.599 55.7004C238.899 56.5004 239.099 57.4004 239.099 58.3004ZM234.399 55.3004C233.699 55.3004 233.099 55.5004 232.599 55.9004C232.099 56.3004 231.799 56.8004 231.699 57.5004H236.899C236.799 56.8004 236.499 56.3004 236.099 55.9004C235.699 55.5004 235.099 55.3004 234.399 55.3004Z" fill="white"/>
<path d="M248.6 52.7008H244.6V50.8008H254.9V52.7008H250.9V62.9008H248.7V52.7008H248.6Z" fill="white"/>
<path d="M258.2 55C258.8 54 259.9 53.5 261.5 53.5V55.6C261.3 55.6 261.1 55.5 261 55.5C260.2 55.5 259.5 55.7 259 56.2C258.5 56.7 258.3 57.4 258.3 58.3V62.8H256.1V53.6H258.2V55Z" fill="white"/>
<path d="M272.299 53.6V62.8H270.199V61.6C269.899 62 269.399 62.3 268.899 62.6C268.399 62.8 267.799 62.9 267.199 62.9C265.999 62.9 264.999 62.6 264.299 61.9C263.599 61.2 263.199 60.2 263.199 58.8V53.5H265.399V58.5C265.399 59.3 265.599 60 265.999 60.4C266.399 60.8 266.899 61 267.599 61C268.399 61 268.999 60.8 269.399 60.3C269.899 59.8 270.099 59.1 270.099 58.2V53.5H272.299V53.6Z" fill="white"/>
<path d="M278 63C277.2 63 276.5 62.9 275.8 62.7C275.1 62.5 274.5 62.3 274.1 62L274.9 60.4C275.3 60.7 275.8 60.9 276.4 61.1C277 61.3 277.6 61.3 278.1 61.3C279.4 61.3 280 61 280 60.3C280 60 279.8 59.8 279.5 59.6C279.2 59.5 278.7 59.4 277.9 59.2C277.1 59.1 276.5 59 276 58.8C275.5 58.6 275.1 58.4 274.8 58C274.5 57.6 274.3 57.1 274.3 56.4C274.3 55.5 274.7 54.8 275.4 54.3C276.1 53.8 277.1 53.5 278.4 53.5C279 53.5 279.7 53.6 280.3 53.7C280.9 53.8 281.5 54 281.9 54.3L281.1 55.9C280.3 55.4 279.4 55.2 278.5 55.2C277.9 55.2 277.4 55.3 277 55.5C276.7 55.7 276.5 55.9 276.5 56.2C276.5 56.5 276.7 56.8 277 56.9C277.4 57 277.9 57.2 278.6 57.3C279.3 57.4 279.9 57.5 280.4 57.7C280.9 57.9 281.3 58.1 281.6 58.5C281.9 58.9 282.1 59.4 282.1 60C282.1 60.9 281.7 61.6 281 62.1C280.3 62.7 279.3 63 278 63Z" fill="white"/>
<path d="M289.6 62.4008C289.3 62.6008 289 62.8008 288.7 62.9008C288.3 63.0008 288 63.1008 287.6 63.1008C286.6 63.1008 285.8 62.8008 285.2 62.3008C284.6 61.8008 284.4 61.0008 284.4 60.0008V55.6008H282.9V53.9008H284.4V51.8008H286.6V53.9008H289.1V55.6008H286.6V60.0008C286.6 60.5008 286.7 60.8008 286.9 61.0008C287.1 61.2008 287.4 61.3008 287.9 61.3008C288.4 61.3008 288.8 61.2008 289.1 60.9008L289.6 62.4008Z" fill="white"/>
<path d="M44.6229 20.0715C43.1429 19.7355 41.5989 19.5515 40.0069 19.5515C36.0629 19.5515 32.3909 20.6715 29.2469 22.6075L24.4629 20.2075C27.7269 17.6475 31.5829 15.9275 35.6629 15.2075C36.0469 15.1275 36.4469 15.0875 36.8469 15.0315L39.9989 3.93555L43.1749 15.0395L44.6229 20.0715Z" fill="#2E58A6"/>
<path d="M28.1432 23.3513C24.4232 26.0153 21.6232 29.8953 20.3432 34.3913L15.1992 35.8553C15.8792 31.8153 17.5192 27.9993 20.0152 24.7353C20.2792 24.4153 20.5352 24.0953 20.7992 23.7993L18.0152 18.2793L23.5192 21.0393L28.1432 23.3513Z" fill="#122164"/>
<path d="M22.6394 50.752V50.776L20.2234 55.56C17.6634 52.296 15.9434 48.456 15.2234 44.36C15.1594 43.976 15.1034 43.6 15.0394 43.2L3.94336 40.016L15.0394 36.856L20.0794 35.416C19.7434 36.896 19.5594 38.416 19.5594 39.992C19.5594 43.952 20.6794 47.632 22.6394 50.752Z" fill="#12491D"/>
<path d="M35.8399 64.8322C31.7999 64.1522 27.9839 62.4962 24.7199 59.9922C24.3999 59.7522 24.0799 59.4962 23.7759 59.2322L18.2559 61.9922L21.0159 56.4882L23.3359 51.8242C25.9759 55.5602 29.8559 58.3682 34.3759 59.6482L35.8399 64.8322Z" fill="#237D26"/>
<path d="M55.543 59.7924C52.279 62.3524 48.447 64.0724 44.343 64.7924C43.959 64.8724 43.583 64.9124 43.183 64.9684L39.999 76.0724L36.815 64.9764L35.375 59.9204C36.855 60.2804 38.415 60.4564 39.991 60.4564C43.951 60.4564 47.631 59.3364 50.751 57.4004L55.543 59.7924Z" fill="#2DA131"/>
<path d="M59.2225 56.2552L61.9825 61.7752L56.4785 59.0152L51.8145 56.6952C55.5345 54.0552 58.3345 50.1752 59.6305 45.6792L64.8145 44.1992C64.1345 48.2392 62.4785 52.0632 59.9745 55.3192C59.7425 55.6312 59.4785 55.9512 59.2225 56.2552Z" fill="#41AA54"/>
<path d="M76.0648 40.0307L64.9608 43.1907L59.8968 44.6547C60.2568 43.1507 60.4408 41.5907 60.4408 39.9907C60.4408 36.0547 59.3208 32.3747 57.3848 29.2547L59.7848 24.4707C62.3688 27.7347 64.0888 31.5907 64.7848 35.6707C64.8648 36.0707 64.9288 36.4467 64.9688 36.8467L76.0648 40.0307Z" fill="#01A0C6"/>
<path d="M61.7602 18.0724L59.0002 23.5764L56.6802 28.1924C54.0402 24.4324 50.1362 21.6324 45.6242 20.3364L44.1602 15.2324C48.2242 15.8964 52.0402 17.5524 55.3042 20.0564C55.6242 20.3124 55.9442 20.5524 56.2482 20.8324L61.7602 18.0724Z" fill="#4FA0CA"/>
<path fill-rule="evenodd" clip-rule="evenodd" d="M80 40.024L66.016 36.024C65.288 31.24 63.28 26.88 60.336 23.312L64.192 15.64L56.48 19.504C52.968 16.664 48.696 14.712 44.032 13.992L40.016 0L36.016 13.992C31.216 14.72 26.848 16.744 23.28 19.696L15.616 15.84L19.472 23.552C16.632 27.072 14.688 31.352 13.984 36.032L0 40.024L13.992 44.016C14.72 48.8 16.744 53.16 19.696 56.728L15.824 64.424L23.584 60.552C27.096 63.384 31.352 65.312 36.008 66.024L40.008 80L44.024 66.024C48.792 65.296 53.152 63.272 56.712 60.336L64.424 64.208L60.536 56.472C63.368 52.96 65.304 48.688 66.024 44.032L80 40.024ZM58.16 21.08L58.24 21.04L59.336 20.48L58.8 21.6L58.76 21.68L58.04 23.08L56.096 26.96C53.696 23.984 50.48 21.696 46.776 20.416L45.696 16.64C48.96 17.44 52 18.904 54.656 20.92V20.944C54.952 21.168 55.256 21.408 55.56 21.664L56.096 22.12L58.16 21.08ZM36.96 16.104L37.664 16.024L38.304 13.848L38.336 13.76L40.024 7.872L41.696 13.76L41.728 13.848L42.168 15.328V15.352L43.344 19.568C42.264 19.392 41.144 19.288 40.008 19.288C36.408 19.288 33.024 20.208 30.064 21.824L26.52 20.048C29.344 18.144 32.504 16.864 35.84 16.264C36.216 16.2 36.576 16.144 36.96 16.104ZM20.456 20.704L21.544 21.264L21.632 21.304L26.912 23.944C23.952 26.344 21.672 29.56 20.416 33.24L16.616 34.344C17.416 31.104 18.856 28.064 20.896 25.4C21.136 25.104 21.376 24.784 21.616 24.496L22.096 23.96L21.056 21.88L21.016 21.8L20.456 20.704ZM13.84 41.736L13.752 41.704L7.88 40.016L13.736 38.344L13.832 38.312L19.536 36.672C19.376 37.752 19.272 38.872 19.272 39.992C19.272 43.592 20.192 46.992 21.808 49.952L20.048 53.488C18.144 50.688 16.872 47.512 16.288 44.168C16.208 43.808 16.168 43.432 16.112 43.048L16.032 42.344L13.84 41.736ZM21.896 58.96L21.808 59L20.68 59.584L21.248 58.456L21.296 58.368L21.976 56.992L23.936 53.112C26.352 56.056 29.552 58.328 33.216 59.592L34.312 63.432C31.072 62.632 28.032 61.192 25.376 59.152L25.36 59.12C25.08 58.92 24.776 58.68 24.48 58.416L23.944 57.936L21.896 58.96ZM21.736 40C21.736 29.92 29.912 21.736 40 21.736C50.096 21.736 58.28 29.912 58.28 40C58.28 50.104 50.104 58.28 40 58.28C29.92 58.28 21.736 50.104 21.736 40ZM43.04 63.904L42.336 63.984L41.72 66.16L41.688 66.256L40 72.144L38.328 66.264L38.296 66.168L36.656 60.448C37.752 60.624 38.856 60.728 40 60.728C43.616 60.728 47 59.808 49.936 58.184L53.472 59.968C50.672 61.864 47.496 63.144 44.152 63.744C43.8 63.8 43.416 63.84 43.04 63.904ZM59.56 59.36L58.432 58.784L58.344 58.744L56.984 58.064L53.04 56.104C56 53.704 58.304 50.504 59.56 46.824L63.4 45.728C62.616 48.96 61.16 52 59.12 54.64C58.896 54.96 58.64 55.256 58.4 55.56L57.944 56.104L58.96 58.12L59 58.2L59.56 59.36ZM60.44 43.384C60.616 42.288 60.72 41.144 60.72 40C60.72 36.4 59.8 33.024 58.2 30.08L59.96 26.56C61.864 29.36 63.136 32.544 63.72 35.88V35.904C63.8 36.264 63.84 36.624 63.896 37L63.976 37.704L66.176 38.344L66.264 38.36L72.136 40.04L66.256 41.72L66.176 41.736L60.44 43.384Z" fill="white"/>
</svg>
