<svg width="26" height="26" viewBox="0 0 26 26" fill="none" xmlns="http://www.w3.org/2000/svg">
<path d="M12.9875 0.499023C6.0875 0.499023 0.5 6.09902 0.5 12.999C0.5 19.899 6.0875 25.499 12.9875 25.499C19.9 25.499 25.5 19.899 25.5 12.999C25.5 6.09902 19.9 0.499023 12.9875 0.499023ZM21.65 7.99902H17.9625C17.5625 6.43652 16.9875 4.93652 16.2375 3.54902C18.5375 4.33652 20.45 5.93652 21.65 7.99902ZM13 3.04902C14.0375 4.54902 14.85 6.21152 15.3875 7.99902H10.6125C11.15 6.21152 11.9625 4.54902 13 3.04902ZM3.325 15.499C3.125 14.699 3 13.8615 3 12.999C3 12.1365 3.125 11.299 3.325 10.499H7.55C7.45 11.324 7.375 12.149 7.375 12.999C7.375 13.849 7.45 14.674 7.55 15.499H3.325ZM4.35 17.999H8.0375C8.4375 19.5615 9.0125 21.0615 9.7625 22.449C7.4625 21.6615 5.55 20.074 4.35 17.999ZM8.0375 7.99902H4.35C5.55 5.92402 7.4625 4.33652 9.7625 3.54902C9.0125 4.93652 8.4375 6.43652 8.0375 7.99902ZM13 22.949C11.9625 21.449 11.15 19.7865 10.6125 17.999H15.3875C14.85 19.7865 14.0375 21.449 13 22.949ZM15.925 15.499H10.075C9.9625 14.674 9.875 13.849 9.875 12.999C9.875 12.149 9.9625 11.3115 10.075 10.499H15.925C16.0375 11.3115 16.125 12.149 16.125 12.999C16.125 13.849 16.0375 14.674 15.925 15.499ZM16.2375 22.449C16.9875 21.0615 17.5625 19.5615 17.9625 17.999H21.65C20.45 20.0615 18.5375 21.6615 16.2375 22.449ZM18.45 15.499C18.55 14.674 18.625 13.849 18.625 12.999C18.625 12.149 18.55 11.324 18.45 10.499H22.675C22.875 11.299 23 12.1365 23 12.999C23 13.8615 22.875 14.699 22.675 15.499H18.45Z" fill="white"/>
</svg>
